<svg version="1.1" id="Layer_1" xmlns="http://www.w3.org/2000/svg" xmlns:xlink="http://www.w3.org/1999/xlink" x="0px" y="0px"
	 width="100%" viewBox="0 0 528 496" enable-background="new 0 0 528 496" xml:space="preserve">
<path fill="#000000" opacity="1.000000" stroke="none" 
	d="
M112.677017,385.923279 
	C101.822502,383.696228 93.931946,377.696747 90.650223,367.854431 
	C88.348328,360.950714 87.649117,353.301880 87.662849,345.750336 
	C87.762817,290.785339 87.869858,235.819290 87.582420,180.855652 
	C87.536858,172.142822 87.903641,163.442383 90.146027,155.264709 
	C93.860237,141.719482 101.873940,130.728043 114.769073,124.177444 
	C123.125183,119.932617 132.045532,117.415977 141.181793,115.029274 
	C151.853561,112.241432 162.507050,112.266830 172.811752,113.446342 
	C194.735397,115.955795 215.807098,121.828354 228.214844,142.632950 
	C232.691620,150.139313 235.277817,158.657837 235.278503,167.658524 
	C235.283173,229.453476 235.305191,291.248474 235.264175,353.043396 
	C235.251068,372.775024 221.659073,386.319733 202.026825,386.335693 
	C175.543259,386.357239 149.059662,386.364349 122.576088,386.346405 
	C119.417580,386.344269 116.259201,386.146606 112.677017,385.923279 
M110.301483,301.273468 
	C111.126472,303.408447 111.531502,305.612823 112.896011,307.645905 
	C120.351852,318.754883 130.829086,323.931366 143.992142,324.007538 
	C156.651077,324.080780 169.312241,323.916290 181.969299,324.087921 
	C186.072403,324.143555 189.842484,323.339203 193.587189,321.824921 
	C204.072800,317.584656 212.790710,310.694885 213.598068,299.157623 
	C215.014282,278.920044 215.116699,258.559235 214.556076,238.238403 
	C214.438156,233.963806 212.629654,231.017670 208.599045,228.759491 
	C192.628265,219.811691 175.370514,217.607651 157.486633,217.988220 
	C143.358932,218.288895 129.781723,220.656189 116.868454,226.833496 
	C109.959938,230.138290 107.204742,235.097763 107.301758,242.466263 
	C107.472778,255.456512 107.529045,268.454224 107.272743,281.441681 
	C107.143044,288.014008 107.835075,294.334961 110.301483,301.273468 
M135.748672,137.269196 
	C126.689102,140.313660 118.225937,144.194336 112.921371,152.989990 
	C115.437881,154.361313 117.529160,155.297897 119.888542,155.588684 
	C127.138733,156.482239 129.693771,159.228638 129.325424,165.642395 
	C128.995438,171.388412 124.943459,175.135971 118.782219,175.332977 
	C116.452805,175.407486 114.119766,175.362930 111.788597,175.390701 
	C110.210106,175.409500 108.700668,175.622986 108.454109,177.600967 
	C107.287643,186.958801 106.240578,196.317886 108.591995,205.320450 
	C114.817345,207.684753 119.060371,203.172745 124.091934,202.126251 
	C134.553360,199.950378 144.949295,197.674515 155.834885,197.522141 
	C174.028091,197.267487 191.840897,198.236267 208.810318,205.569733 
	C210.420242,206.265488 212.374786,206.984009 213.932816,205.303177 
	C215.372757,203.749725 216.029205,201.994797 215.077774,199.826660 
	C213.333405,195.851562 213.663605,191.616333 214.172745,187.511765 
	C215.607056,175.948593 215.433777,175.596634 203.630005,175.365173 
	C199.448090,175.283188 196.335510,174.069260 194.622101,169.785950 
	C191.538712,162.077881 195.014771,156.163010 203.328735,155.603165 
	C205.214691,155.476151 207.222473,155.446243 208.090073,153.548019 
	C209.119583,151.295547 207.271942,149.802246 205.933792,148.422592 
	C202.654495,145.041580 198.739517,142.456085 194.470306,140.552155 
	C175.610626,132.141342 156.244583,131.519760 135.748672,137.269196 
M130.231537,366.577942 
	C133.716064,366.405243 137.201569,366.066437 140.684937,366.087219 
	C160.807892,366.207275 180.930374,366.409424 201.052948,366.589844 
	C207.847687,366.650757 215.161041,362.073975 213.954773,353.719086 
	C213.605225,351.298126 213.350708,348.584412 214.512421,346.332001 
	C216.772934,341.949036 215.023972,338.779236 212.126205,335.730896 
	C192.311920,345.642609 188.820908,344.251587 171.707214,344.339752 
	C161.892380,344.390289 152.074936,344.212524 142.262527,344.373657 
	C132.066498,344.541168 122.472794,342.544312 113.555840,337.477264 
	C112.184380,336.697937 110.821739,335.517212 108.618179,336.128540 
	C108.201141,340.119720 107.468193,344.190155 107.413498,348.269714 
	C107.299294,356.788544 109.620712,363.985809 119.370255,366.135223 
	C122.678596,366.864594 125.995590,366.441437 130.231537,366.577942 
z"/>
<path fill="#000000" opacity="1.000000" stroke="none" 
	d="
M321.685974,247.999939 
	C321.684021,231.182159 321.610077,214.863892 321.727020,198.546982 
	C321.760162,193.917526 320.369598,189.376221 321.529602,184.649429 
	C322.688446,179.927109 325.456024,176.758499 330.173096,176.738434 
	C350.651398,176.651276 371.174957,175.901306 391.592896,177.020096 
	C404.530518,177.729004 420.092041,189.473816 423.700592,206.774277 
	C425.966919,217.639816 425.595215,227.516495 420.701660,237.043777 
	C412.930908,252.172745 399.809570,259.509979 383.108093,260.146088 
	C370.970581,260.608368 358.798615,260.385620 346.647797,260.158966 
	C342.459686,260.080872 341.215668,261.522766 341.268402,265.617157 
	C341.461243,280.600311 341.380920,295.587677 341.319763,310.573120 
	C341.293671,316.970062 338.648071,321.025269 333.677612,322.748199 
	C327.350525,324.941406 321.740326,321.124451 321.722412,314.437073 
	C321.663483,292.458160 321.691620,270.479004 321.685974,247.999939 
M353.580109,239.860809 
	C363.893585,239.859192 374.209595,240.000839 384.519806,239.816330 
	C395.178802,239.625580 405.972412,228.416245 405.820892,218.013657 
	C405.694946,209.367310 397.082123,198.883209 388.208954,197.446732 
	C374.015961,195.149033 359.680725,196.704071 345.407593,196.590088 
	C342.314911,196.565384 341.251495,198.434891 341.286194,201.510269 
	C341.406433,212.154831 341.409515,222.803329 341.249268,233.447205 
	C341.180542,238.013855 343.471344,239.733047 347.622375,239.820923 
	C349.285248,239.856155 350.949097,239.847198 353.580109,239.860809 
z"/>
<path fill="#000000" opacity="1.000000" stroke="none" 
	d="
M415.999939,429.337921 
	C381.171997,429.337952 346.844086,429.343506 312.516174,429.333221 
	C304.272003,429.330750 300.738892,426.499603 300.659271,419.917450 
	C300.580536,413.410278 305.417297,408.753845 312.596649,408.746918 
	C353.923370,408.707092 395.250183,408.707764 436.576904,408.754089 
	C443.114136,408.761414 447.325653,412.798492 447.326843,418.679504 
	C447.328064,424.813721 443.037689,429.143127 436.496033,429.287933 
	C429.833588,429.435364 423.165527,429.331482 415.999939,429.337921 
z"/>
<path fill="#000000" opacity="1.000000" stroke="none" 
	d="
M234.173569,422.747162 
	C231.728058,427.612122 227.966141,429.356567 223.008972,429.350739 
	C181.717621,429.302338 140.426178,429.337799 99.134796,429.308228 
	C92.747528,429.303680 87.712814,425.254852 87.826988,420.439850 
	C87.970680,414.380157 93.227150,408.777252 99.273933,408.767334 
	C141.064682,408.698730 182.855698,408.690033 224.646423,408.769501 
	C232.462021,408.784363 236.459793,414.656250 234.173569,422.747162 
z"/>
<path fill="#000000" opacity="1.000000" stroke="none" 
	d="
M438.448822,70.167038 
	C445.495087,72.335220 448.021698,75.590256 447.269623,81.140732 
	C446.485596,86.927086 442.300659,90.315628 435.600647,90.320663 
	C394.139343,90.351791 352.678009,90.356056 311.216705,90.323097 
	C304.366119,90.317650 300.686035,87.029228 300.633301,81.185417 
	C300.575989,74.834335 304.005341,71.025742 310.795654,70.989685 
	C337.601379,70.847336 364.408386,70.945351 391.214905,70.945023 
	C403.536438,70.944870 415.858490,70.982521 428.179138,70.872345 
	C431.471375,70.842903 434.759308,70.332214 438.448822,70.167038 
z"/>
<path fill="#000000" opacity="1.000000" stroke="none" 
	d="
M192.000000,70.955688 
	C202.963943,70.549370 213.444885,71.451164 223.909851,70.272301 
	C230.007492,69.585411 234.866364,73.589981 235.222214,78.967766 
	C235.595734,84.612846 231.296249,89.623047 225.488220,90.263359 
	C224.499680,90.372337 223.492920,90.333252 222.494568,90.333420 
	C181.712143,90.340324 140.927185,90.101540 100.149178,90.528694 
	C90.679977,90.627884 86.327568,84.852242 89.891434,75.118698 
	C91.167526,71.633476 94.196625,70.952019 97.617798,70.962303 
	C115.761482,71.016876 133.905426,70.985924 152.049286,70.979927 
	C165.199524,70.975578 178.349762,70.963959 192.000000,70.955688 
z"/>
<path fill="#000000" opacity="1.000000" stroke="none" 
	d="
M258.103577,101.838028 
	C256.530579,93.603325 257.973755,85.866829 258.527985,78.118820 
	C258.816010,74.092361 262.369507,70.871666 267.550018,70.445068 
	C271.728668,70.100967 276.054230,71.093567 277.079437,75.749123 
	C279.165985,85.224411 278.855377,94.888237 277.324585,104.433167 
	C276.739166,108.083511 274.118011,110.514557 270.509735,111.730621 
	C263.611053,114.055595 258.493469,110.174164 258.103577,101.838028 
z"/>
<path fill="#000000" opacity="1.000000" stroke="none" 
	d="
M258.053101,402.073486 
	C258.157318,399.443787 258.060364,397.254547 258.397491,395.134338 
	C259.086029,390.804413 262.825714,387.823853 267.543579,387.573517 
	C272.987122,387.284729 276.307892,389.062897 277.303192,393.945160 
	C279.140442,402.957428 279.090942,412.227325 277.537354,421.179108 
	C276.190521,428.939331 267.083801,431.606567 261.055542,426.950043 
	C258.840759,425.239258 257.846802,423.120880 258.159210,420.472565 
	C258.865662,414.483734 257.898285,408.520721 258.053101,402.073486 
z"/>
<path fill="#000000" opacity="1.000000" stroke="none" 
	d="
M278.249878,149.128235 
	C278.231995,154.593979 278.412384,159.588364 278.147919,164.559082 
	C277.770203,171.658646 272.658600,176.022079 265.926819,175.251740 
	C261.427887,174.736908 258.397217,172.514221 258.306915,167.657257 
	C258.158783,159.687866 258.078064,151.713638 258.184967,143.744354 
	C258.254700,138.545898 261.677795,135.053467 266.692688,134.558044 
	C273.505096,133.885040 276.089233,135.645355 277.702240,141.725830 
	C278.315277,144.036728 278.173523,146.332779 278.249878,149.128235 
z"/>
<path fill="#000000" opacity="1.000000" stroke="none" 
	d="
M257.694824,346.028717 
	C257.975220,341.388336 258.272308,337.240051 258.505463,333.088196 
	C258.772766,328.328308 261.788910,324.701324 266.051910,324.099640 
	C271.703888,323.301910 276.221924,325.577057 277.263885,330.716949 
	C279.057587,339.564758 278.977600,348.615692 277.397491,357.464661 
	C276.411987,362.983551 271.225555,365.989014 265.702332,365.246704 
	C261.253265,364.648743 258.327362,362.365326 258.142456,357.495972 
	C258.003479,353.836517 257.837311,350.178131 257.694824,346.028717 
z"/>
<path fill="#000000" opacity="1.000000" stroke="none" 
	d="
M278.238831,288.729187 
	C277.627686,298.862671 271.438110,304.230194 264.030365,301.570374 
	C260.385284,300.261597 258.376373,297.947327 258.067596,293.912048 
	C257.418732,285.433777 257.938904,277.000610 258.681427,268.575287 
	C259.044159,264.459412 262.828003,261.241699 267.173065,260.926666 
	C272.741394,260.522949 276.105286,262.536011 277.385834,267.452942 
	C279.170044,274.303589 277.861969,281.328308 278.238831,288.729187 
z"/>
<path fill="#000000" opacity="1.000000" stroke="none" 
	d="
M257.868652,223.616119 
	C257.473206,217.496597 258.218811,211.880066 258.527740,206.240997 
	C258.783813,201.566086 261.237000,198.746338 265.545319,197.883682 
	C271.436127,196.704178 276.241791,198.794495 277.205322,203.651489 
	C279.052643,212.963181 279.185028,222.502426 277.094360,231.807251 
	C276.012115,236.623840 270.315308,239.708649 265.862518,238.914780 
	C260.668091,237.988663 258.687408,235.317368 258.420380,229.026352 
	C258.350067,227.369659 258.078064,225.721542 257.868652,223.616119 
z"/>
</svg>